<?xml version="1.0" encoding="UTF-8" standalone="no"?>
<!-- Created with Inkscape (http://www.inkscape.org/) -->

<svg
   width="23.4268mm"
   height="22.588802mm"
   viewBox="0 0 23.4268 22.588802"
   version="1.1"
   id="svg1"
   xml:space="preserve"
   xmlns="http://www.w3.org/2000/svg"
   xmlns:svg="http://www.w3.org/2000/svg"><defs
     id="defs1" /><g
     id="layer2"
     style="display:inline"
     transform="translate(-57.974568,-235.86283)"><path
       style="fill:#ffffff;fill-opacity:1;stroke:#ffffff;stroke-width:0.0268848;stroke-miterlimit:2.6;stroke-dasharray:none;stroke-opacity:1;paint-order:normal"
       d="m 68.468721,239.2755 5.456358,3.38441 V 256.424 l -0.785094,-0.47442 0.01181,-12.92587 -3.626994,-2.09004 z"
       id="path23" /><path
       style="fill:#ffffff;fill-opacity:1;stroke:#ffffff;stroke-width:0.529167;stroke-miterlimit:2.6;stroke-dasharray:none;stroke-opacity:1;paint-order:normal"
       d="m 63.510654,254.79069 0.0097,-8.03326 2.595856,-2.43215 v 11.83198 h -2.619242 z"
       id="path24" /><path
       style="fill:#ffffff;fill-opacity:1;stroke:#ffffff;stroke-width:0.529167;stroke-miterlimit:2.6;stroke-dasharray:none;stroke-opacity:1;paint-order:normal"
       d="m 66.937182,248.73463 0.0097,-8.03326 1.521839,-1.42587 5.456358,3.38441 V 256.424 l -0.785094,-0.47442 0.01181,-12.92587 -3.626716,-2.09005 v 9.29896 l 3.292,1.02675 v 2.61638 l -5.893615,-1.68269 z"
       id="path25" /><path
       style="fill:#ffffff;fill-opacity:1;stroke:#ffffff;stroke-width:0.529167;stroke-miterlimit:2.6;stroke-dasharray:none;stroke-opacity:1;paint-order:normal"
       d="m 68.468721,239.2755 5.456358,3.38441 V 256.424 l -0.785094,-0.47442 0.01181,-12.92587 -3.626995,-2.09005 z"
       id="path26" /><path
       id="path27"
       style="display:inline;opacity:1;fill:#ffffff;fill-opacity:1;stroke:#ffffff;stroke-width:0.529167;stroke-miterlimit:2.6;stroke-dasharray:none;stroke-opacity:1;paint-order:normal"
       d="m 69.202824,236.1274 c -6.055072,0 -10.963676,4.90861 -10.963672,10.96368 2e-6,6.05507 4.908604,11.09596 10.963672,11.09596 3.290589,0 6.6591,-1.55327 8.850862,-4.17476 0.973165,-1.16398 2.175497,-2.43041 2.727024,-3.39278 0.395668,-0.6904 0.457983,-2.23424 0.204299,-2.48774 -1.297927,-1.29696 -2.635933,0.0328 -2.777009,0.68446 -0.06628,0.30614 -0.725682,2.47077 -2.075991,4.20155 -1.585494,2.03224 -4.073425,3.64792 -6.929185,3.64792 -5.287911,0 -9.57461,-4.2867 -9.57461,-9.57461 0,-5.28791 4.900233,-9.71392 10.22942,-9.52784 5.329187,0.18608 8.513351,4.9732 10.168793,10.03714 -0.260934,-7.02377 -5.032824,-11.47296 -10.823603,-11.47298 z" /></g></svg>
